<svg height="512pt" viewBox="0 0 512 512" width="512pt" xmlns="http://www.w3.org/2000/svg" xmlns:xlink="http://www.w3.org/1999/xlink"><linearGradient id="a" gradientUnits="userSpaceOnUse" x1="256" x2="256" y1=".0001" y2="511.9659"><stop offset="0" stop-color="#2af598"/><stop offset="1" stop-color="#009efd"/></linearGradient><path d="m256 0-256 190.933594v261.03125c0 33.085937 26.914062 60 60 60h392c33.085938 0 60-26.914063 60-60v-261.03125zm200.8125 199.671875-200.8125 149.367187-200.8125-149.367187 200.8125-149.773437zm-4.8125 272.292969h-392c-11.027344 0-20-8.972656-20-20v-213.734375l216 160.660156 216-160.660156v213.734375c0 11.027344-8.972656 20-20 20zm-217-190v-40h40v40zm40-70h-40v-95h40zm0 0" fill="url(#a)"/></svg>